# Blender 4.1.1
# www.blender.org
mtllib fauteuil.mtl
o beveled_cuboid
v 0.281250 0.494541 0.228732
v 0.281250 -0.034036 0.036345
v -0.281250 0.494541 0.228732
v -0.281250 -0.034036 0.036345
v 0.281250 0.451789 0.346193
v 0.281250 -0.076789 0.153807
v -0.281250 0.451789 0.346193
v -0.281250 -0.076789 0.153807
v -0.312500 0.462477 0.316828
v -0.312500 0.483853 0.258097
v -0.312500 -0.066100 0.124441
v -0.312500 -0.044724 0.065711
v 0.312500 0.462477 0.316828
v 0.312500 0.483853 0.258097
v 0.312500 -0.066100 0.124441
v 0.312500 -0.044724 0.065711
v 0.281250 -0.095466 0.113753
v 0.281250 -0.074090 0.055023
v -0.281250 -0.095466 0.113753
v -0.281250 -0.074090 0.055023
v 0.281250 0.491842 0.327516
v 0.281250 0.513218 0.268785
v -0.281250 0.491842 0.327516
v -0.281250 0.513218 0.268785
vn 1.0000 -0.0000 -0.0000
vn -1.0000 -0.0000 -0.0000
vn -0.0000 0.3420 -0.9397
vn -0.0000 -0.3420 0.9397
vn -0.0000 0.9397 0.3420
vn -0.0000 -0.9397 -0.3420
vn 0.7071 0.2418 -0.6645
vn -0.7071 0.2418 -0.6645
vn -0.0000 0.9063 -0.4226
vn -0.0000 -0.4226 -0.9063
vn 0.7071 -0.2418 0.6645
vn -0.7071 -0.2418 0.6645
vn -0.0000 0.4226 0.9063
vn -0.0000 -0.9063 0.4226
vn 0.7071 -0.6645 -0.2418
vn 0.7071 0.6645 0.2418
vn -0.7071 -0.6645 -0.2418
vn -0.7071 0.6645 0.2418
vn 0.5773 0.3451 0.7400
vn -0.5773 0.3451 0.7400
vn 0.5774 -0.7400 0.3451
vn -0.5774 -0.7400 0.3451
vn 0.5774 0.7400 -0.3451
vn -0.5774 0.7400 -0.3451
vn 0.5774 -0.3451 -0.7400
vn -0.5774 -0.3451 -0.7400
vt 0.593750 1.000000
vt 0.312500 1.000000
vt 0.312500 0.968750
vt 0.593750 0.968750
vt 0.593750 0.906250
vt 0.593750 0.937500
vt 0.312500 0.937500
vt 0.312500 0.906250
vt 0.281250 0.718750
vt 0.281250 1.000000
vt 0.000000 1.000000
vt 0.000000 0.718750
vt 0.000000 0.406250
vt 0.281250 0.406250
vt 0.281250 0.687500
vt 0.000000 0.687500
vt 0.593750 0.843750
vt 0.593750 0.875000
vt 0.312500 0.875000
vt 0.312500 0.843750
vt 0.593750 0.812500
vt 0.312500 0.812500
vt 0.312500 0.781250
vt 0.593750 0.781250
vt 0.593750 0.750000
vt 0.312500 0.750000
vt 0.312500 0.718750
vt 0.593750 0.718750
vt 0.593750 0.656250
vt 0.593750 0.687500
vt 0.312500 0.687500
vt 0.312500 0.656250
vt 0.625000 0.477903
vt 0.625000 0.500000
vt 0.343750 0.500000
vt 0.343750 0.477903
vt 0.625000 0.437500
vt 0.343750 0.437500
vt 0.343750 0.415403
vt 0.625000 0.415403
vt 0.312500 0.625000
vt 0.312500 0.593750
vt 0.593750 0.593750
vt 0.593750 0.625000
vt 0.312500 0.531250
vt 0.593750 0.531250
vt 0.593750 0.562500
vt 0.312500 0.562500
vt 0.031250 0.343750
vt 0.312500 0.343750
vt 0.312500 0.365847
vt 0.031250 0.365847
vt 0.656250 0.990847
vt 0.656250 0.968750
vt 0.937500 0.968750
vt 0.937500 0.990847
vt 0.625000 0.906250
vt 0.656250 0.906250
vt 0.656250 0.937500
vt 0.625000 0.937500
vt 0.625000 0.875000
vt 0.625000 0.843750
vt 0.656250 0.843750
vt 0.656250 0.875000
vt 0.625000 0.812500
vt 0.625000 0.781250
vt 0.656250 0.781250
vt 0.656250 0.812500
vt 0.625000 0.718750
vt 0.656250 0.718750
vt 0.656250 0.750000
vt 0.625000 0.750000
vt 0.331639 0.354798
vt 0.312500 0.365849
vt 0.031250 0.365849
vt 0.012111 0.354798
vt 0.656250 0.990849
vt 0.637111 0.979798
vt 0.956639 0.979798
vt 0.937500 0.990849
vt 0.625000 0.477901
vt 0.644139 0.488952
vt 0.324611 0.488952
vt 0.343750 0.477901
vt 0.324611 0.426452
vt 0.343750 0.415401
vt 0.625000 0.415401
vt 0.644139 0.426452
s 0
g beveled_cuboid_m_8e2a330d-8b52-7c24-ada9-d2212c5334bd.002
usemtl m_8e2a330d-8b52-7c24-ada9-d2212c5334bd.002
f 16/1/1 14/2/1 13/3/1 15/4/1
f 9/5/2 10/6/2 12/7/2 11/8/2
f 1/9/3 2/10/3 4/11/3 3/12/3
f 8/13/4 6/14/4 5/15/4 7/16/4
f 21/17/5 22/18/5 24/19/5 23/20/5
f 20/21/6 18/22/6 17/23/6 19/24/6
f 2/25/7 1/26/7 14/27/7 16/28/7
f 10/29/8 3/30/8 4/31/8 12/32/8
f 22/33/9 1/34/9 3/35/9 24/36/9
f 4/37/10 2/38/10 18/39/10 20/40/10
f 13/41/11 5/42/11 6/43/11 15/44/11
f 8/45/12 7/46/12 9/47/12 11/48/12
f 7/49/13 5/50/13 21/51/13 23/52/13
f 17/53/14 6/54/14 8/55/14 19/56/14
f 15/57/15 17/58/15 18/59/15 16/60/15
f 22/61/16 21/62/16 13/63/16 14/64/16
f 20/65/17 19/66/17 11/67/17 12/68/17
f 9/69/18 23/70/18 24/71/18 10/72/18
f 5/50/19 13/73/19 21/74/19
f 7/49/20 23/75/20 9/76/20
f 6/54/21 17/77/21 15/78/21
f 8/55/22 11/79/22 19/80/22
f 1/34/23 22/81/23 14/82/23
f 3/35/24 10/83/24 24/84/24
f 2/38/25 16/85/25 18/86/25
f 4/37/26 20/87/26 12/88/26
o cube.005
v 0.437500 0.187500 0.312500
v 0.437500 0.187500 -0.500000
v 0.437500 -0.062500 0.312500
v 0.437500 -0.062500 -0.500000
v 0.312500 0.187500 -0.500000
v 0.312500 0.187500 0.312500
v 0.312500 -0.062500 -0.500000
v 0.312500 -0.062500 0.312500
v 0.437500 -0.062500 0.437500
v 0.437500 -0.062500 -0.500000
v 0.437500 -0.375000 0.437500
v 0.437500 -0.375000 -0.500000
v -0.437500 -0.062500 -0.500000
v -0.437500 -0.062500 0.437500
v -0.437500 -0.375000 -0.500000
v -0.437500 -0.375000 0.437500
v -0.312500 0.187500 0.312500
v -0.312500 0.187500 -0.500000
v -0.312500 -0.062500 0.312500
v -0.312500 -0.062500 -0.500000
v -0.437500 0.187500 -0.500000
v -0.437500 0.187500 0.312500
v -0.437500 -0.062500 -0.500000
v -0.437500 -0.062500 0.312500
v 0.437500 0.562500 0.437500
v 0.437500 0.562500 0.312500
v 0.437500 -0.062500 0.437500
v 0.437500 -0.062500 0.312500
v -0.437500 0.562500 0.312500
v -0.437500 0.562500 0.437500
v -0.437500 -0.062500 0.312500
v -0.437500 -0.062500 0.437500
vn -0.0000 -0.0000 -1.0000
vn 1.0000 -0.0000 -0.0000
vn -0.0000 -0.0000 1.0000
vn -1.0000 -0.0000 -0.0000
vn -0.0000 1.0000 -0.0000
vn -0.0000 -1.0000 -0.0000
vt 0.000000 0.750000
vt 0.125000 0.750000
vt 0.125000 1.000000
vt 0.000000 1.000000
vt 0.812500 0.750000
vt 0.812500 1.000000
vt 0.000000 0.187500
vt 0.125000 0.187500
vt 0.000000 0.687500
vt 0.875000 0.687500
vt 0.875000 1.000000
vt 0.937500 0.687500
vt 0.937500 1.000000
vt 0.000000 0.062500
vt 0.875000 0.062500
vt 0.000000 0.375000
vt 0.875000 0.375000
vt 0.125000 0.375000
vt 0.000000 0.875000
vt 0.875000 0.875000
s 0
g cube.005_m_c695ef9f-da86-c536-63a2-946bf63e6dfd.002
usemtl m_c695ef9f-da86-c536-63a2-946bf63e6dfd.002
f 28/89/27 31/90/27 29/91/27 26/92/27
f 27/89/28 28/93/28 26/94/28 25/92/28
f 32/89/29 27/90/29 25/91/29 30/92/29
f 31/89/30 32/93/30 30/94/30 29/92/30
f 30/95/31 25/96/31 26/91/31 29/92/31
f 31/95/32 28/96/32 27/91/32 32/92/32
f 36/97/27 39/98/27 37/99/27 34/92/27
f 35/97/28 36/100/28 34/101/28 33/92/28
f 40/97/29 35/98/29 33/99/29 38/92/29
f 39/97/30 40/100/30 38/101/30 37/92/30
f 38/102/31 33/103/31 34/99/31 37/92/31
f 39/102/32 36/103/32 35/99/32 40/92/32
f 44/89/27 47/90/27 45/91/27 42/92/27
f 43/89/28 44/93/28 42/94/28 41/92/28
f 48/89/29 43/90/29 41/91/29 46/92/29
f 47/89/30 48/93/30 46/94/30 45/92/30
f 46/95/31 41/96/31 42/91/31 45/92/31
f 47/95/32 44/96/32 43/91/32 48/92/32
f 52/104/27 55/105/27 53/99/27 50/92/27
f 51/104/28 52/106/28 50/91/28 49/92/28
f 56/104/29 51/105/29 49/99/29 54/92/29
f 55/104/30 56/106/30 54/91/30 53/92/30
f 54/107/31 49/108/31 50/99/31 53/92/31
f 55/107/32 52/108/32 51/99/32 56/92/32
o cube.007
v 0.437500 0.187500 0.500000
v 0.437500 0.187500 0.437500
v 0.437500 -0.375000 0.500000
v 0.437500 -0.375000 0.437500
v -0.437500 0.187500 0.437500
v -0.437500 0.187500 0.500000
v -0.437500 -0.375000 0.437500
v -0.437500 -0.375000 0.500000
v 0.500000 -0.375000 0.500000
v 0.500000 -0.375000 -0.500000
v 0.500000 -0.500000 0.500000
v 0.500000 -0.500000 -0.500000
v -0.500000 -0.375000 -0.500000
v -0.500000 -0.375000 0.500000
v -0.500000 -0.500000 -0.500000
v -0.500000 -0.500000 0.500000
v 0.500000 0.187500 0.500000
v 0.500000 0.187500 -0.500000
v 0.500000 -0.375000 0.500000
v 0.500000 -0.375000 -0.500000
v 0.437500 0.187500 -0.500000
v 0.437500 0.187500 0.500000
v 0.437500 -0.375000 -0.500000
v 0.437500 -0.375000 0.500000
v -0.437500 0.187500 0.500000
v -0.437500 0.187500 -0.500000
v -0.437500 -0.375000 0.500000
v -0.437500 -0.375000 -0.500000
v -0.500000 0.187500 -0.500000
v -0.500000 0.187500 0.500000
v -0.500000 -0.375000 -0.500000
v -0.500000 -0.375000 0.500000
vn -0.0000 -0.0000 -1.0000
vn 1.0000 -0.0000 -0.0000
vn -0.0000 -0.0000 1.0000
vn -1.0000 -0.0000 -0.0000
vn -0.0000 1.0000 -0.0000
vn -0.0000 -1.0000 -0.0000
vt 0.875000 0.062500
vt 0.875000 0.937500
vt 0.125000 0.937500
vt 0.125000 0.062500
vt 0.875000 0.000000
vt 0.125000 0.000000
vt 0.875000 1.000000
vt 0.125000 1.000000
vt 0.062500 0.937500
vt 0.062500 0.062500
vt 0.937500 0.937500
vt 0.937500 0.062500
vt 0.000000 1.000000
vt 0.000000 0.000000
vt 1.000000 0.000000
vt 1.000000 1.000000
vt 0.687500 0.937500
vt 0.687500 1.000000
vt 0.687500 0.000000
vt 0.062500 0.000000
vt 0.062500 1.000000
vt 0.937500 0.000000
vt 0.937500 1.000000
s 0
g cube.007_m_b3d21b07-ebc6-4f2b-f04a-82d9a81cb3d9.002
usemtl m_b3d21b07-ebc6-4f2b-f04a-82d9a81cb3d9.002
f 60/109/33 63/110/33 61/111/33 58/112/33
f 59/113/34 60/109/34 58/112/34 57/114/34
f 64/109/35 59/110/35 57/111/35 62/112/35
f 63/110/36 64/115/36 62/116/36 61/111/36
f 62/112/37 57/111/37 58/117/37 61/118/37
f 63/109/38 60/110/38 59/119/38 64/120/38
f 68/114/33 71/116/33 69/121/33 66/122/33
f 67/123/34 68/124/34 66/115/34 65/113/34
f 72/114/35 67/116/35 65/121/35 70/122/35
f 71/123/36 72/124/36 70/115/36 69/113/36
f 70/123/37 65/124/37 66/121/37 69/122/37
f 71/123/38 68/124/38 67/121/38 72/122/38
f 76/125/33 79/126/33 77/116/33 74/111/33
f 75/127/34 76/126/34 74/116/34 73/114/34
f 80/125/35 75/126/35 73/116/35 78/111/35
f 79/127/36 80/126/36 78/116/36 77/114/36
f 78/128/37 73/114/37 74/116/37 77/129/37
f 79/113/38 76/130/38 75/131/38 80/115/38
f 84/110/33 87/115/33 85/116/33 82/111/33
f 83/113/34 84/115/34 82/116/34 81/114/34
f 88/110/35 83/115/35 81/116/35 86/111/35
f 87/113/36 88/115/36 86/116/36 85/114/36
f 86/128/37 81/114/37 82/116/37 85/129/37
f 87/113/38 84/130/38 83/131/38 88/115/38
