# Blender 4.1.1
# www.blender.org
mtllib lampe.mtl
g cube_cube.015
v 0.750000 0.250000 0.218750
v 0.750000 0.250000 -0.218750
v 0.750000 0.187500 0.218750
v 0.750000 0.187500 -0.218750
v -0.750000 0.250000 -0.218750
v -0.750000 0.250000 0.218750
v -0.750000 0.187500 -0.218750
v -0.750000 0.187500 0.218750
vn -0.0000 -0.0000 -1.0000
vn 1.0000 -0.0000 -0.0000
vn -0.0000 -0.0000 1.0000
vn -1.0000 -0.0000 -0.0000
vn -0.0000 1.0000 -0.0000
vn -0.0000 -1.0000 -0.0000
vt 0.000000 0.750000
vt 1.000000 0.750000
vt 1.000000 0.812500
vt 0.000000 0.812500
vt 0.000000 0.187500
vt 0.062500 0.187500
vt 0.062500 0.750000
vt 1.000000 0.187500
vt 1.000000 0.250000
vt 0.000000 0.250000
vt 0.937500 0.187500
vt 0.937500 0.750000
s 0
usemtl m_6fd976de-8362-4456-5fcc-dc3ead3e4ce1.001
f 4/1/1 7/2/1 5/3/1 2/4/1
f 3/5/2 4/6/2 2/7/2 1/1/2
f 8/5/3 3/8/3 1/9/3 6/10/3
f 7/11/4 8/8/4 6/2/4 5/12/4
f 6/5/5 1/8/5 2/2/5 5/1/5
f 7/8/6 4/5/6 3/1/6 8/2/6
g cube.003_cube.018
v 0.050697 -0.125000 0.072404
v 0.072403 -0.125000 -0.050697
v 0.050697 -0.250000 0.072404
v 0.072403 -0.250000 -0.050697
v -0.050697 -0.125000 -0.072403
v -0.072403 -0.125000 0.050697
v -0.050697 -0.250000 -0.072403
v -0.072403 -0.250000 0.050697
v 0.634903 -0.125000 0.050697
v 0.613197 -0.125000 -0.072403
v 0.634903 -0.250000 0.050697
v 0.613197 -0.250000 -0.072403
v 0.490097 -0.125000 -0.050697
v 0.511803 -0.125000 0.072404
v 0.490097 -0.250000 -0.050697
v 0.511803 -0.250000 0.072404
v -0.482393 -0.125000 0.037355
v -0.525145 -0.125000 -0.080107
v -0.482393 -0.250000 0.037355
v -0.525145 -0.250000 -0.080107
v -0.642607 -0.125000 -0.037355
v -0.599855 -0.125000 0.080107
v -0.642607 -0.250000 -0.037355
v -0.599855 -0.250000 0.080107
vn 0.1736 -0.0000 -0.9848
vn 0.9848 -0.0000 0.1736
vn -0.1736 -0.0000 0.9848
vn -0.9848 -0.0000 -0.1736
vn -0.0000 1.0000 -0.0000
vn -0.0000 -1.0000 -0.0000
vn -0.1736 -0.0000 -0.9848
vn 0.9848 -0.0000 -0.1736
vn 0.1736 -0.0000 0.9848
vn -0.9848 -0.0000 0.1736
vn -0.3420 -0.0000 -0.9397
vn 0.9397 -0.0000 -0.3420
vn 0.3420 -0.0000 0.9397
vn -0.9397 -0.0000 0.3420
vt 0.000000 0.000000
vt 1.000000 0.000000
vt 1.000000 1.000000
vt 0.000000 1.000000
s 0
usemtl m_0ffeb6dc-3364-e848-de97-aaa4f716704a
f 12/13/7 15/14/7 13/15/7 10/16/7
f 11/13/8 12/14/8 10/15/8 9/16/8
f 16/13/9 11/14/9 9/15/9 14/16/9
f 15/13/10 16/14/10 14/15/10 13/16/10
f 14/13/11 9/14/11 10/15/11 13/16/11
f 15/13/12 12/14/12 11/15/12 16/16/12
f 20/13/13 23/14/13 21/15/13 18/16/13
f 19/13/14 20/14/14 18/15/14 17/16/14
f 24/13/15 19/14/15 17/15/15 22/16/15
f 23/13/16 24/14/16 22/15/16 21/16/16
f 22/13/11 17/14/11 18/15/11 21/16/11
f 23/13/12 20/14/12 19/15/12 24/16/12
f 28/13/17 31/14/17 29/15/17 26/16/17
f 27/13/18 28/14/18 26/15/18 25/16/18
f 32/13/19 27/14/19 25/15/19 30/16/19
f 31/13/20 32/14/20 30/15/20 29/16/20
f 30/13/11 25/14/11 26/15/11 29/16/11
f 31/13/12 28/14/12 27/15/12 32/16/12
g cube.008_cube.023
v -0.522446 0.000000 0.018677
v -0.543823 -0.000000 -0.040054
v -0.522446 -0.125000 0.018677
v -0.543823 -0.125000 -0.040054
v -0.602554 -0.000000 -0.018677
v -0.581177 0.000000 0.040054
v -0.602554 -0.125000 -0.018677
v -0.581177 -0.125000 0.040054
v 0.012674 0.500000 0.018101
v 0.018101 0.500000 -0.012674
v 0.012674 0.000000 0.018101
v 0.018101 -0.000000 -0.012674
v -0.012674 0.500000 -0.018101
v -0.018101 0.500000 0.012674
v -0.012674 -0.000000 -0.018101
v -0.018101 0.000000 0.012674
v 0.025349 0.000000 0.036202
v 0.036202 -0.000000 -0.025349
v 0.025349 -0.125000 0.036202
v 0.036202 -0.125000 -0.025349
v -0.025349 -0.000000 -0.036202
v -0.036202 0.000000 0.025349
v -0.025349 -0.125000 -0.036202
v -0.036202 -0.125000 0.025349
v 0.598702 0.000000 0.025349
v 0.587849 -0.000000 -0.036202
v 0.598702 -0.125000 0.025349
v 0.587849 -0.125000 -0.036202
v 0.526298 -0.000000 -0.025349
v 0.537151 0.000000 0.036202
v 0.526298 -0.125000 -0.025349
v 0.537151 -0.125000 0.036202
v 0.580601 0.500000 0.012674
v 0.575174 0.500000 -0.018101
v 0.580601 0.000000 0.012674
v 0.575174 -0.000000 -0.018101
v 0.544399 0.500000 -0.012674
v 0.549826 0.500000 0.018101
v 0.544399 -0.000000 -0.012674
v 0.549826 0.000000 0.018101
v -0.542473 0.500000 0.009339
v -0.553161 0.500000 -0.020027
v -0.542473 0.000000 0.009339
v -0.553161 -0.000000 -0.020027
v -0.582527 0.500000 -0.009339
v -0.571839 0.500000 0.020027
v -0.582527 -0.000000 -0.009339
v -0.571839 0.000000 0.020027
vn -0.3420 -0.0000 -0.9397
vn 0.9397 -0.0000 -0.3420
vn 0.3420 -0.0000 0.9397
vn -0.9397 -0.0000 0.3420
vn -0.0000 1.0000 -0.0000
vn -0.0000 -1.0000 -0.0000
vn 0.1736 -0.0000 -0.9848
vn 0.9848 -0.0000 0.1736
vn -0.1736 -0.0000 0.9848
vn -0.9848 -0.0000 -0.1736
vn -0.1736 -0.0000 -0.9848
vn 0.9848 -0.0000 -0.1736
vn 0.1736 -0.0000 0.9848
vn -0.9848 -0.0000 0.1736
vt 0.000000 0.875000
vt 0.062500 0.875000
vt 0.062500 1.000000
vt 0.000000 1.000000
vt 0.125000 0.875000
vt 0.125000 1.000000
vt 0.000000 0.750000
vt 0.062500 0.750000
vt 0.187500 0.875000
vt 0.187500 1.000000
vt 0.062500 0.812500
vt 0.125000 0.812500
vt 0.187500 0.812500
vt 0.000000 0.468750
vt 0.000000 0.968750
s 0
usemtl m_40623257-f1d9-f765-c55a-efd90bd484a7.001
f 36/17/21 39/18/21 37/19/21 34/20/21
f 35/18/22 36/21/22 34/22/22 33/19/22
f 40/23/23 35/24/23 33/18/23 38/17/23
f 39/21/24 40/25/24 38/26/24 37/22/24
f 38/21/25 33/18/25 34/27/25 37/28/25
f 39/29/26 36/28/26 35/21/26 40/25/26
f 44/30/27 47/30/27 45/31/27 42/31/27
f 43/30/28 44/30/28 42/31/28 41/31/28
f 48/30/29 43/30/29 41/31/29 46/31/29
f 47/30/30 48/30/30 46/31/30 45/31/30
f 46/31/25 41/31/25 42/31/25 45/31/25
f 47/31/26 44/31/26 43/31/26 48/31/26
f 52/17/27 55/18/27 53/19/27 50/20/27
f 51/18/28 52/21/28 50/22/28 49/19/28
f 56/23/29 51/24/29 49/18/29 54/17/29
f 55/21/30 56/25/30 54/26/30 53/22/30
f 54/21/25 49/18/25 50/27/25 53/28/25
f 55/29/26 52/28/26 51/21/26 56/25/26
f 60/17/31 63/18/31 61/19/31 58/20/31
f 59/18/32 60/21/32 58/22/32 57/19/32
f 64/23/33 59/24/33 57/18/33 62/17/33
f 63/21/34 64/25/34 62/26/34 61/22/34
f 62/21/25 57/18/25 58/27/25 61/28/25
f 63/29/26 60/28/26 59/21/26 64/25/26
f 68/30/31 71/30/31 69/31/31 66/31/31
f 67/30/32 68/30/32 66/31/32 65/31/32
f 72/30/33 67/30/33 65/31/33 70/31/33
f 71/30/34 72/30/34 70/31/34 69/31/34
f 70/31/25 65/31/25 66/31/25 69/31/25
f 71/31/26 68/31/26 67/31/26 72/31/26
f 76/30/21 79/30/21 77/31/21 74/31/21
f 75/30/22 76/30/22 74/31/22 73/31/22
f 80/30/23 75/30/23 73/31/23 78/31/23
f 79/30/24 80/30/24 78/31/24 77/31/24
f 78/31/25 73/31/25 74/31/25 77/31/25
f 79/31/26 76/31/26 75/31/26 80/31/26
g plane.012_plane.038
v -0.469114 -0.312500 -0.200268
v -0.469114 -0.000000 -0.200268
v -0.762768 -0.312500 -0.093386
v -0.762768 -0.000000 -0.093386
v 0.181009 -0.312500 -0.126744
v 0.181009 -0.000000 -0.126744
v -0.126744 -0.312500 -0.181009
v -0.126744 -0.000000 -0.181009
v 0.126744 -0.312500 0.181009
v 0.126744 0.000000 0.181009
v -0.181009 -0.312500 0.126744
v -0.181009 0.000000 0.126744
v 0.126744 -0.312500 0.181009
v 0.126744 0.000000 0.181009
v 0.181009 -0.312500 -0.126744
v 0.181009 -0.000000 -0.126744
v -0.181009 -0.312500 0.126744
v -0.181009 0.000000 0.126744
v -0.126744 -0.312500 -0.181009
v -0.126744 -0.000000 -0.181009
v 0.126744 0.000000 0.181009
v 0.181009 -0.000000 -0.126744
v -0.181009 0.000000 0.126744
v -0.126744 -0.000000 -0.181009
v 0.126744 -0.312500 0.181009
v 0.181009 -0.312500 -0.126744
v -0.181009 -0.312500 0.126744
v -0.126744 -0.312500 -0.181009
v 0.743509 -0.312500 0.126744
v 0.743509 0.000000 0.126744
v 0.689244 -0.312500 -0.181009
v 0.689244 -0.000000 -0.181009
v 0.743509 -0.312500 0.126744
v 0.689244 -0.312500 -0.181009
v 0.435756 -0.312500 0.181009
v 0.381491 -0.312500 -0.126744
v 0.435756 -0.312500 0.181009
v 0.435756 0.000000 0.181009
v 0.381491 -0.312500 -0.126744
v 0.381491 -0.000000 -0.126744
v 0.689244 -0.312500 -0.181009
v 0.689244 -0.000000 -0.181009
v 0.381491 -0.312500 -0.126744
v 0.381491 -0.000000 -0.126744
v 0.743509 -0.312500 0.126744
v 0.743509 0.000000 0.126744
v 0.435756 -0.312500 0.181009
v 0.435756 0.000000 0.181009
v 0.743509 0.000000 0.126744
v 0.689244 -0.000000 -0.181009
v 0.435756 0.000000 0.181009
v 0.381491 -0.000000 -0.126744
v -0.362232 -0.312500 0.093386
v -0.469114 -0.312500 -0.200268
v -0.655886 -0.312500 0.200268
v -0.762768 -0.312500 -0.093386
v -0.362232 -0.312500 0.093386
v -0.362232 0.000000 0.093386
v -0.469114 -0.312500 -0.200268
v -0.469114 -0.000000 -0.200268
v -0.655886 -0.312500 0.200268
v -0.655886 0.000000 0.200268
v -0.762768 -0.312500 -0.093386
v -0.762768 -0.000000 -0.093386
v -0.362232 -0.312500 0.093386
v -0.362232 0.000000 0.093386
v -0.655886 -0.312500 0.200268
v -0.655886 0.000000 0.200268
v -0.362232 0.000000 0.093386
v -0.469114 -0.000000 -0.200268
v -0.655886 0.000000 0.200268
v -0.762768 -0.000000 -0.093386
vn 0.3420 -0.0000 0.9397
vn -0.1736 -0.0000 0.9848
vn -0.9848 -0.0000 -0.1736
vn -0.0000 1.0000 -0.0000
vn -0.9848 -0.0000 0.1736
vn 0.1736 -0.0000 0.9848
vn -0.9397 -0.0000 0.3420
vt 1.000000 0.000000
vt 1.000000 1.000000
vt 0.000000 1.000000
vt 0.000000 0.000000
s 0
usemtl m_cdfee5d6-4234-5151-a3c4-c5303504df74.001
f 81/32/35 82/33/35 84/34/35 83/35/35
f 85/32/36 86/33/36 88/34/36 87/35/36
f 89/32/36 90/33/36 92/34/36 91/35/36
f 93/32/37 94/33/37 96/34/37 95/35/37
f 97/32/37 98/33/37 100/34/37 99/35/37
f 101/32/38 102/33/38 104/34/38 103/35/38
f 105/32/38 106/33/38 108/34/38 107/35/38
f 109/32/39 110/33/39 112/34/39 111/35/39
f 113/32/38 114/33/38 116/34/38 115/35/38
f 117/32/39 118/33/39 120/34/39 119/35/39
f 121/32/40 122/33/40 124/34/40 123/35/40
f 125/32/40 126/33/40 128/34/40 127/35/40
f 129/32/38 130/33/38 132/34/38 131/35/38
f 133/32/38 134/33/38 136/34/38 135/35/38
f 137/32/41 138/33/41 140/34/41 139/35/41
f 141/32/41 142/33/41 144/34/41 143/35/41
f 145/32/35 146/33/35 148/34/35 147/35/35
f 149/32/38 150/33/38 152/34/38 151/35/38
