# Blender 4.1.1
# www.blender.org
mtllib evier_wood.mtl
g cube.004_cube.026
v 0.062500 0.468750 0.062500
v 0.062500 0.468750 -0.062500
v 0.062500 0.437500 0.062500
v 0.062500 0.437500 -0.062500
v -0.062500 0.468750 -0.062500
v -0.062500 0.468750 0.062500
v -0.062500 0.437500 -0.062500
v -0.062500 0.437500 0.062500
v 0.500000 0.500000 0.500000
v 0.500000 0.500000 -0.500000
v 0.500000 0.437500 0.500000
v 0.500000 0.437500 -0.500000
v 0.437500 0.500000 -0.500000
v 0.437500 0.500000 0.500000
v 0.437500 0.437500 -0.500000
v 0.437500 0.437500 0.500000
v -0.437500 0.500000 0.500000
v -0.437500 0.500000 -0.500000
v -0.437500 0.437500 0.500000
v -0.437500 0.437500 -0.500000
v -0.500000 0.500000 -0.500000
v -0.500000 0.500000 0.500000
v -0.500000 0.437500 -0.500000
v -0.500000 0.437500 0.500000
v 0.437500 0.500000 -0.375000
v 0.437500 0.500000 -0.500000
v 0.437500 0.437500 -0.375000
v 0.437500 0.437500 -0.500000
v -0.437500 0.500000 -0.500000
v -0.437500 0.500000 -0.375000
v -0.437500 0.437500 -0.500000
v -0.437500 0.437500 -0.375000
v 0.437500 0.500000 0.500000
v 0.437500 0.500000 0.375000
v 0.437500 0.437500 0.500000
v 0.437500 0.437500 0.375000
v -0.437500 0.500000 0.375000
v -0.437500 0.500000 0.500000
v -0.437500 0.437500 0.375000
v -0.437500 0.437500 0.500000
vn -0.0000 -0.0000 -1.0000
vn 1.0000 -0.0000 -0.0000
vn -0.0000 -0.0000 1.0000
vn -1.0000 -0.0000 -0.0000
vn -0.0000 1.0000 -0.0000
vn -0.0000 -1.0000 -0.0000
vt 0.437500 0.437500
vt 0.562500 0.437500
vt 0.562500 0.375000
vt 0.437500 0.375000
vt 0.375000 0.437500
vt 0.437500 0.562500
vt 0.375000 0.562500
vt 0.437500 0.187500
vt 0.562500 0.187500
vt 0.562500 0.250000
vt 0.437500 0.250000
vt 0.625000 0.437500
vt 0.625000 0.562500
vt 0.562500 0.562500
vt 0.312500 0.250000
vt 0.312500 0.375000
vt 0.000000 0.937500
vt 0.062500 0.937500
vt 0.062500 1.000000
vt 0.000000 1.000000
vt 1.000000 0.000000
vt 1.000000 1.000000
vt 0.937500 1.000000
vt 0.937500 0.000000
vt 0.000000 0.000000
vt 0.062500 0.000000
vt 0.062500 0.062500
vt 0.000000 0.062500
vt 0.125000 0.000000
vt 0.125000 1.000000
vt 0.937500 0.937500
vt 1.000000 0.937500
vt 0.875000 1.000000
vt 0.875000 0.000000
vt 1.000000 0.062500
vt 0.937500 0.062500
vt 0.062500 0.125000
vt 0.937500 0.125000
vt 0.937500 0.187500
vt 0.062500 0.187500
vt 0.000000 0.125000
vt 0.062500 0.312500
vt 0.937500 0.312500
vt 0.937500 0.375000
vt 0.062500 0.375000
vt 1.000000 0.125000
vt 0.062500 0.812500
vt 0.937500 0.812500
vt 0.937500 0.875000
vt 0.062500 0.875000
vt 0.000000 0.875000
vt 0.062500 0.625000
vt 0.937500 0.625000
vt 0.937500 0.687500
vt 0.062500 0.687500
vt 1.000000 0.875000
s 0
usemtl m_47f192c6-d82f-cd75-0b73-2150a7ba5858.001
f 4/1/1 7/2/1 5/3/1 2/4/1
f 3/5/2 4/1/2 2/6/2 1/7/2
f 8/8/3 3/9/3 1/10/3 6/11/3
f 7/2/4 8/12/4 6/13/4 5/14/4
f 6/15/5 1/11/5 2/4/5 5/16/5
f 7/11/6 4/10/6 3/3/6 8/4/6
f 12/17/1 15/18/1 13/19/1 10/20/1
f 11/21/2 12/22/2 10/23/2 9/24/2
f 16/25/3 11/26/3 9/27/3 14/28/3
f 15/29/4 16/30/4 14/19/4 13/26/4
f 14/25/5 9/26/5 10/19/5 13/20/5
f 15/25/6 12/26/6 11/19/6 16/20/6
f 20/31/1 23/32/1 21/22/1 18/23/1
f 19/24/2 20/23/2 18/33/2 17/34/2
f 24/24/3 19/21/3 17/35/3 22/36/3
f 23/29/4 24/30/4 22/19/4 21/26/4
f 22/24/5 17/21/5 18/22/5 21/23/5
f 23/25/6 20/26/6 19/19/6 24/20/6
f 28/37/1 31/38/1 29/39/1 26/40/1
f 27/26/2 28/37/2 26/41/2 25/25/2
f 32/42/3 27/43/3 25/44/3 30/45/3
f 31/21/4 32/46/4 30/38/4 29/24/4
f 30/26/5 25/24/5 26/38/5 29/37/5
f 31/40/6 28/39/6 27/43/6 32/42/6
f 36/47/1 39/48/1 37/49/1 34/50/1
f 35/50/2 36/19/2 34/20/2 33/51/2
f 40/52/3 35/53/3 33/54/3 38/55/3
f 39/56/4 40/22/4 38/23/4 37/49/4
f 38/50/5 33/49/5 34/23/5 37/19/5
f 39/55/6 36/54/6 35/48/6 40/47/6
g cube.019_cube.041
v 0.062500 0.843750 0.437500
v 0.062500 0.843750 0.312500
v 0.062500 0.812500 0.437500
v 0.062500 0.812500 0.312500
v -0.062500 0.843750 0.312500
v -0.062500 0.843750 0.437500
v -0.062500 0.812500 0.312500
v -0.062500 0.812500 0.437500
v 0.437500 0.437500 -0.312500
v 0.437500 0.437500 -0.375000
v 0.437500 -0.500000 -0.312500
v 0.437500 -0.500000 -0.375000
v -0.437500 0.437500 -0.375000
v -0.437500 0.437500 -0.312500
v -0.437500 -0.500000 -0.375000
v -0.437500 -0.500000 -0.312500
v 0.437500 0.437500 0.500000
v 0.437500 0.437500 0.437500
v 0.437500 -0.500000 0.500000
v 0.437500 -0.500000 0.437500
v -0.437500 0.437500 0.437500
v -0.437500 0.437500 0.500000
v -0.437500 -0.500000 0.437500
v -0.437500 -0.500000 0.500000
v 0.437500 0.312500 -0.375000
v 0.437500 0.312500 -0.406250
v 0.437500 -0.000000 -0.375000
v 0.437500 -0.000000 -0.406250
v -0.437500 0.312500 -0.406250
v -0.437500 0.312500 -0.375000
v -0.437500 -0.000000 -0.406250
v -0.437500 -0.000000 -0.375000
v 0.437500 -0.062500 -0.375000
v 0.437500 -0.062500 -0.406250
v 0.437500 -0.375000 -0.375000
v 0.437500 -0.375000 -0.406250
v -0.437500 -0.062500 -0.406250
v -0.437500 -0.062500 -0.375000
v -0.437500 -0.375000 -0.406250
v -0.437500 -0.375000 -0.375000
v -0.437500 0.437500 0.500000
v -0.437500 0.437500 -0.375000
v -0.437500 -0.500000 0.500000
v -0.437500 -0.500000 -0.375000
v -0.500000 0.437500 -0.375000
v -0.500000 0.437500 0.500000
v -0.500000 -0.500000 -0.375000
v -0.500000 -0.500000 0.500000
v 0.500000 0.437500 0.500000
v 0.500000 0.437500 -0.375000
v 0.500000 -0.500000 0.500000
v 0.500000 -0.500000 -0.375000
v 0.437500 0.437500 -0.375000
v 0.437500 0.437500 0.500000
v 0.437500 -0.500000 -0.375000
v 0.437500 -0.500000 0.500000
v 0.437500 0.562500 -0.312500
v 0.437500 0.562500 -0.375000
v 0.437500 0.375000 -0.312500
v 0.437500 0.375000 -0.375000
v -0.437500 0.562500 -0.375000
v -0.437500 0.562500 -0.312500
v -0.437500 0.375000 -0.375000
v -0.437500 0.375000 -0.312500
v 0.437500 0.562500 0.375000
v 0.437500 0.562500 0.312500
v 0.437500 0.375000 0.375000
v 0.437500 0.375000 0.312500
v -0.437500 0.562500 0.312500
v -0.437500 0.562500 0.375000
v -0.437500 0.375000 0.312500
v -0.437500 0.375000 0.375000
v 0.437500 0.562500 0.312500
v 0.437500 0.562500 -0.312500
v 0.437500 0.375000 0.312500
v 0.437500 0.375000 -0.312500
v 0.375000 0.562500 -0.312500
v 0.375000 0.562500 0.312500
v 0.375000 0.375000 -0.312500
v 0.375000 0.375000 0.312500
v -0.375000 0.562500 0.312500
v -0.375000 0.562500 -0.312500
v -0.375000 0.375000 0.312500
v -0.375000 0.375000 -0.312500
v -0.437500 0.562500 -0.312500
v -0.437500 0.562500 0.312500
v -0.437500 0.375000 -0.312500
v -0.437500 0.375000 0.312500
v 0.375000 0.437500 0.375000
v 0.375000 0.437500 -0.312500
v 0.375000 0.375000 0.375000
v 0.375000 0.375000 -0.312500
v -0.375000 0.437500 -0.312500
v -0.375000 0.437500 0.375000
v -0.375000 0.375000 -0.312500
v -0.375000 0.375000 0.375000
v 0.437500 -0.437500 0.437500
v 0.437500 -0.437500 -0.312500
v 0.437500 -0.500000 0.437500
v 0.437500 -0.500000 -0.312500
v -0.437500 -0.437500 -0.312500
v -0.437500 -0.437500 0.437500
v -0.437500 -0.500000 -0.312500
v -0.437500 -0.500000 0.437500
v 0.062500 0.812500 0.375000
v 0.062500 0.812500 0.312500
v 0.062500 0.562500 0.375000
v 0.062500 0.562500 0.312500
v -0.062500 0.812500 0.312500
v -0.062500 0.812500 0.375000
v -0.062500 0.562500 0.312500
v -0.062500 0.562500 0.375000
v 0.062500 0.781250 0.312500
v 0.062500 0.781250 0.125000
v 0.062500 0.750000 0.312500
v 0.062500 0.750000 0.125000
v -0.062500 0.781250 0.125000
v -0.062500 0.781250 0.312500
v -0.062500 0.750000 0.125000
v -0.062500 0.750000 0.312500
vn -0.0000 -0.0000 -1.0000
vn 1.0000 -0.0000 -0.0000
vn -0.0000 -0.0000 1.0000
vn -1.0000 -0.0000 -0.0000
vn -0.0000 1.0000 -0.0000
vn -0.0000 -1.0000 -0.0000
vt 0.000000 0.968750
vt 0.125000 0.968750
vt 0.125000 1.000000
vt 0.000000 1.000000
vt 0.000000 0.875000
vt 0.125000 0.875000
vt 0.000000 0.062500
vt 0.875000 0.062500
vt 0.875000 1.000000
vt 0.062500 0.062500
vt 0.062500 1.000000
vt 0.000000 0.937500
vt 0.875000 0.937500
vt 0.000000 0.687500
vt 0.875000 0.687500
vt 0.031250 0.687500
vt 0.031250 1.000000
vt 0.875000 0.968750
vt 0.000000 0.125000
vt 0.062500 0.125000
vt 0.000000 0.812500
vt 0.875000 0.812500
vt 0.062500 0.812500
vt 0.625000 0.812500
vt 0.625000 1.000000
vt 0.000000 0.375000
vt 0.062500 0.375000
vt 0.750000 0.937500
vt 0.750000 1.000000
vt 0.687500 0.937500
vt 0.687500 1.000000
vt 0.000000 0.312500
vt 0.750000 0.312500
vt 0.000000 0.250000
vt 0.875000 0.250000
vt 0.000000 0.750000
vt 0.125000 0.750000
vt 0.062500 0.750000
vt 0.125000 0.937500
vt 0.187500 0.968750
vt 0.187500 1.000000
vt 0.125000 0.812500
s 0
usemtl m_2cb9fbc4-2028-fe92-e432-a971f3c2ef53.001
f 44/57/7 47/58/7 45/59/7 42/60/7
f 43/57/8 44/58/8 42/59/8 41/60/8
f 48/57/9 43/58/9 41/59/9 46/60/9
f 47/57/10 48/58/10 46/59/10 45/60/10
f 46/61/11 41/62/11 42/59/11 45/60/11
f 47/61/12 44/62/12 43/59/12 48/60/12
f 52/63/7 55/64/7 53/65/7 50/60/7
f 51/63/8 52/66/8 50/67/8 49/60/8
f 56/63/9 51/64/9 49/65/9 54/60/9
f 55/63/10 56/66/10 54/67/10 53/60/10
f 54/68/11 49/69/11 50/65/11 53/60/11
f 55/68/12 52/69/12 51/65/12 56/60/12
f 60/63/7 63/64/7 61/65/7 58/60/7
f 59/63/8 60/66/8 58/67/8 57/60/8
f 64/63/9 59/64/9 57/65/9 62/60/9
f 63/63/10 64/66/10 62/67/10 61/60/10
f 62/68/11 57/69/11 58/65/11 61/60/11
f 63/68/12 60/69/12 59/65/12 64/60/12
f 68/70/7 71/71/7 69/65/7 66/60/7
f 67/70/8 68/72/8 66/73/8 65/60/8
f 72/70/9 67/71/9 65/65/9 70/60/9
f 71/70/10 72/72/10 70/73/10 69/60/10
f 70/57/11 65/74/11 66/65/11 69/60/11
f 71/57/12 68/74/12 67/65/12 72/60/12
f 76/70/7 79/71/7 77/65/7 74/60/7
f 75/70/8 76/72/8 74/73/8 73/60/8
f 80/70/9 75/71/9 73/65/9 78/60/9
f 79/70/10 80/72/10 78/73/10 77/60/10
f 78/57/11 73/74/11 74/65/11 77/60/11
f 79/57/12 76/74/12 75/65/12 80/60/12
f 84/63/7 87/66/7 85/67/7 82/60/7
f 83/63/8 84/64/8 82/65/8 81/60/8
f 88/63/9 83/66/9 81/67/9 86/60/9
f 87/63/10 88/64/10 86/65/10 85/60/10
f 86/75/11 81/76/11 82/67/11 85/60/11
f 87/75/12 84/76/12 83/67/12 88/60/12
f 92/63/7 95/66/7 93/67/7 90/60/7
f 91/63/8 92/64/8 90/65/8 89/60/8
f 96/63/9 91/66/9 89/67/9 94/60/9
f 95/63/10 96/64/10 94/65/10 93/60/10
f 94/75/11 89/76/11 90/67/11 93/60/11
f 95/75/12 92/76/12 91/67/12 96/60/12
f 100/77/7 103/78/7 101/65/7 98/60/7
f 99/77/8 100/79/8 98/67/8 97/60/8
f 104/77/9 99/78/9 97/65/9 102/60/9
f 103/77/10 104/79/10 102/67/10 101/60/10
f 102/68/11 97/69/11 98/65/11 101/60/11
f 103/68/12 100/69/12 99/65/12 104/60/12
f 108/77/7 111/78/7 109/65/7 106/60/7
f 107/77/8 108/79/8 106/67/8 105/60/8
f 112/77/9 107/78/9 105/65/9 110/60/9
f 111/77/10 112/79/10 110/67/10 109/60/10
f 110/68/11 105/69/11 106/65/11 109/60/11
f 111/68/12 108/69/12 107/65/12 112/60/12
f 116/77/7 119/79/7 117/67/7 114/60/7
f 115/77/8 116/80/8 114/81/8 113/60/8
f 120/77/9 115/79/9 113/67/9 118/60/9
f 119/77/10 120/80/10 118/81/10 117/60/10
f 118/82/11 113/83/11 114/67/11 117/60/11
f 119/82/12 116/83/12 115/67/12 120/60/12
f 124/77/7 127/79/7 125/67/7 122/60/7
f 123/77/8 124/80/8 122/81/8 121/60/8
f 128/77/9 123/79/9 121/67/9 126/60/9
f 127/77/10 128/80/10 126/81/10 125/60/10
f 126/82/11 121/83/11 122/67/11 125/60/11
f 127/82/12 124/83/12 123/67/12 128/60/12
f 132/68/7 135/84/7 133/85/7 130/60/7
f 131/68/8 132/86/8 130/87/8 129/60/8
f 136/68/9 131/84/9 129/85/9 134/60/9
f 135/68/10 136/86/10 134/87/10 133/60/10
f 134/88/11 129/89/11 130/85/11 133/60/11
f 135/88/12 132/89/12 131/85/12 136/60/12
f 140/68/7 143/69/7 141/65/7 138/60/7
f 139/68/8 140/84/8 138/85/8 137/60/8
f 144/68/9 139/69/9 137/65/9 142/60/9
f 143/68/10 144/84/10 142/85/10 141/60/10
f 142/90/11 137/91/11 138/65/11 141/60/11
f 143/90/12 140/91/12 139/65/12 144/60/12
f 148/92/7 151/93/7 149/59/7 146/60/7
f 147/92/8 148/94/8 146/67/8 145/60/8
f 152/92/9 147/93/9 145/59/9 150/60/9
f 151/92/10 152/94/10 150/67/10 149/60/10
f 150/68/11 145/95/11 146/59/11 149/60/11
f 151/68/12 148/95/12 147/59/12 152/60/12
f 156/57/7 159/58/7 157/59/7 154/60/7
f 155/57/8 156/96/8 154/97/8 153/60/8
f 160/57/9 155/58/9 153/59/9 158/60/9
f 159/57/10 160/96/10 158/97/10 157/60/10
f 158/77/11 153/98/11 154/59/11 157/60/11
f 159/77/12 156/98/12 155/59/12 160/60/12
