# Blender 4.2.1 LTS
# www.blender.org
mtllib knives.mtl
o cube
v 0.500000 0.187500 0.500000
v 0.500000 0.187500 0.437500
v 0.500000 0.062500 0.500000
v 0.500000 0.062500 0.437500
v -0.500000 0.187500 0.437500
v -0.500000 0.187500 0.500000
v -0.500000 0.062500 0.437500
v -0.500000 0.062500 0.500000
vn -0.0000 -0.0000 -1.0000
vn 1.0000 -0.0000 -0.0000
vn -0.0000 -0.0000 1.0000
vn -1.0000 -0.0000 -0.0000
vn -0.0000 1.0000 -0.0000
vn -0.0000 -1.0000 -0.0000
vt 0.000000 0.875000
vt 1.000000 0.875000
vt 1.000000 1.000000
vt 0.000000 1.000000
vt 0.000000 0.500000
vt 0.062500 0.500000
vt 0.062500 0.625000
vt 0.000000 0.625000
vt 0.000000 0.750000
vt 1.000000 0.750000
vt 0.125000 0.500000
vt 0.125000 0.625000
vt 0.000000 0.687500
vt 1.000000 0.687500
vt 1.000000 0.625000
s 0
g cube_m_c07e4f9e-d2b9-9c1e-9d6e-5e10ddfb0b6e.001
usemtl m_c07e4f9e-d2b9-9c1e-9d6e-5e10ddfb0b6e.001
f 4/1/1 7/2/1 5/3/1 2/4/1
f 3/5/2 4/6/2 2/7/2 1/8/2
f 8/9/3 3/10/3 1/2/3 6/1/3
f 7/6/4 8/11/4 6/12/4 5/7/4
f 6/10/5 1/9/5 2/13/5 5/14/5
f 7/15/6 4/8/6 3/13/6 8/14/6
o plane
v -0.125000 0.343750 0.431250
v -0.125000 -0.093750 0.431250
v -0.312500 0.343750 0.431250
v -0.312500 -0.093750 0.431250
v -0.250000 0.000000 0.462500
v -0.250000 0.000000 0.400000
v -0.250000 -0.312500 0.462500
v -0.250000 -0.312500 0.400000
v -0.312500 0.000000 0.462500
v -0.312500 0.000000 0.400000
v -0.312500 -0.312500 0.462500
v -0.312500 -0.312500 0.400000
v 0.000000 0.281250 0.431250
v 0.000000 -0.031250 0.431250
v -0.062500 0.281250 0.431250
v -0.062500 -0.031250 0.431250
v -0.062500 0.281250 0.431250
v -0.031250 0.343750 0.431250
v 0.000000 0.281250 0.431250
v -0.031250 0.000000 0.462500
v -0.031250 0.000000 0.400000
v -0.031250 -0.250000 0.462500
v -0.031250 -0.250000 0.400000
v -0.062500 0.000000 0.462500
v -0.062500 0.000000 0.400000
v -0.062500 -0.250000 0.462500
v -0.062500 -0.250000 0.400000
v 0.125000 0.250000 0.431250
v 0.125000 0.000000 0.431250
v 0.062500 0.250000 0.431250
v 0.062500 0.000000 0.431250
v 0.125000 0.250000 0.431250
v 0.062500 0.375000 0.431250
v 0.062500 0.250000 0.431250
v 0.093750 0.062500 0.462500
v 0.093750 0.062500 0.400000
v 0.093750 -0.187500 0.462500
v 0.093750 -0.187500 0.400000
v 0.062500 0.062500 0.462500
v 0.062500 0.062500 0.400000
v 0.062500 -0.187500 0.462500
v 0.062500 -0.187500 0.400000
v 0.296875 0.281250 0.431250
v 0.296875 -0.031250 0.431250
v 0.265625 0.281250 0.431250
v 0.265625 -0.031250 0.431250
v 0.312500 -0.031250 0.400000
v 0.312500 -0.031250 0.462500
v 0.250000 -0.031250 0.400000
v 0.250000 -0.031250 0.462500
v 0.296875 -0.031250 0.446875
v 0.296875 -0.031250 0.415625
v 0.296875 -0.218750 0.446875
v 0.296875 -0.218750 0.415625
v 0.265625 -0.031250 0.446875
v 0.265625 -0.031250 0.415625
v 0.265625 -0.218750 0.446875
v 0.265625 -0.218750 0.415625
vn -0.0000 -0.0000 -1.0000
vn 1.0000 -0.0000 -0.0000
vn -1.0000 -0.0000 -0.0000
vn -0.0000 1.0000 -0.0000
vn -0.0000 -1.0000 -0.0000
vn -0.0000 -0.0000 1.0000
vt 0.187500 0.562500
vt 0.187500 1.000000
vt 0.000000 1.000000
vt 0.000000 0.562500
vt 0.562500 1.000000
vt 0.250000 1.000000
vt 0.250000 0.937500
vt 0.562500 0.937500
vt 0.250000 0.812500
vt 0.562500 0.812500
vt 0.562500 0.875000
vt 0.250000 0.875000
vt 0.187500 0.062500
vt 0.187500 0.125000
vt 0.125000 0.125000
vt 0.125000 0.062500
vt 0.875000 0.500000
vt 0.875000 0.437500
vt 0.937500 0.437500
vt 0.937500 0.500000
vt 0.062500 0.187500
vt 0.062500 0.500000
vt 0.000000 0.500000
vt 0.000000 0.187500
vt 0.187500 0.187500
vt 0.187500 0.500000
vt 0.125000 0.500000
vt 0.125000 0.187500
vt 0.312500 0.437500
vt 0.312500 0.750000
vt 0.250000 0.750000
vt 0.250000 0.437500
vt 0.059201 0.097049
vt 0.003299 0.125000
vt 0.003299 0.055123
vt 0.750000 0.750000
vt 0.500000 0.750000
vt 0.500000 0.687500
vt 0.750000 0.687500
vt 0.500000 0.562500
vt 0.750000 0.562500
vt 0.750000 0.625000
vt 0.500000 0.625000
vt 0.937500 0.312500
vt 0.937500 0.375000
vt 0.875000 0.375000
vt 0.875000 0.312500
vt 0.875000 0.250000
vt 0.875000 0.187500
vt 0.937500 0.187500
vt 0.937500 0.250000
vt 0.312500 0.125000
vt 0.312500 0.375000
vt 0.250000 0.375000
vt 0.250000 0.125000
vt 0.437500 0.125000
vt 0.437500 0.375000
vt 0.375000 0.375000
vt 0.375000 0.125000
vt 0.562500 0.250000
vt 0.562500 0.500000
vt 0.500000 0.500000
vt 0.500000 0.250000
vt 0.812500 0.187500
vt 0.750000 0.187500
vt 0.750000 0.062500
vt 0.875000 1.000000
vt 0.625000 1.000000
vt 0.625000 0.937500
vt 0.875000 0.937500
vt 0.625000 0.812500
vt 0.875000 0.812500
vt 0.875000 0.875000
vt 0.625000 0.875000
vt 0.937500 0.062500
vt 0.937500 0.125000
vt 0.875000 0.125000
vt 0.875000 0.062500
vt 0.937500 1.000000
vt 0.937500 0.937500
vt 1.000000 0.937500
vt 1.000000 1.000000
vt 0.687500 0.250000
vt 0.687500 0.500000
vt 0.625000 0.500000
vt 0.625000 0.250000
vt 0.812500 0.250000
vt 0.812500 0.500000
vt 0.750000 0.500000
vt 0.750000 0.250000
vt 0.437500 0.437500
vt 0.437500 0.750000
vt 0.375000 0.750000
vt 0.375000 0.437500
vt 0.937500 0.875000
vt 0.937500 0.812500
vt 1.000000 0.812500
vt 1.000000 0.875000
vt 1.000000 0.750000
vt 0.812500 0.750000
vt 0.812500 0.687500
vt 1.000000 0.687500
vt 0.812500 0.562500
vt 1.000000 0.562500
vt 1.000000 0.625000
vt 0.812500 0.625000
vt 0.312500 0.000000
vt 0.312500 0.062500
vt 0.250000 0.062500
vt 0.250000 0.000000
vt 0.375000 0.062500
vt 0.375000 0.000000
vt 0.437500 0.000000
vt 0.437500 0.062500
vt 0.562500 0.000000
vt 0.562500 0.187500
vt 0.500000 0.187500
vt 0.500000 0.000000
vt 0.687500 0.000000
vt 0.687500 0.187500
vt 0.625000 0.187500
vt 0.625000 0.000000
s 0
g plane_m_f5ee5c1e-e6c2-9fae-8eef-8cc4e4921f7a.001
usemtl m_f5ee5c1e-e6c2-9fae-8eef-8cc4e4921f7a.001
f 9/16/7 10/17/7 12/18/7 11/19/7
f 16/20/8 14/21/8 13/22/8 15/23/8
f 19/24/9 17/25/9 18/26/9 20/27/9
f 13/28/10 14/29/10 18/30/10 17/31/10
f 16/32/11 15/33/11 19/34/11 20/35/11
f 15/36/12 13/37/12 17/38/12 19/39/12
f 20/40/7 18/41/7 14/42/7 16/43/7
f 21/44/7 22/45/7 24/46/7 23/47/7
f 27/48/7 25/49/7 26/50/7
f 31/51/8 29/52/8 28/53/8 30/54/8
f 34/55/9 32/56/9 33/57/9 35/58/9
f 28/59/10 29/60/10 33/61/10 32/62/10
f 31/63/11 30/64/11 34/65/11 35/66/11
f 30/67/12 28/68/12 32/69/12 34/70/12
f 35/71/7 33/72/7 29/73/7 31/74/7
f 36/75/7 37/76/7 39/77/7 38/78/7
f 40/79/7 42/80/7 41/81/7
f 46/82/8 44/83/8 43/84/8 45/85/8
f 49/86/9 47/87/9 48/88/9 50/89/9
f 43/90/10 44/91/10 48/92/10 47/93/10
f 46/94/11 45/95/11 49/96/11 50/97/11
f 45/98/12 43/99/12 47/100/12 49/101/12
f 50/102/7 48/103/7 44/104/7 46/105/7
f 51/106/7 52/107/7 54/108/7 53/109/7
f 55/110/11 56/111/11 58/112/11 57/113/11
f 62/114/8 60/115/8 59/116/8 61/117/8
f 65/118/9 63/119/9 64/120/9 66/121/9
f 59/122/10 60/123/10 64/124/10 63/125/10
f 62/126/11 61/127/11 65/128/11 66/129/11
f 61/130/12 59/131/12 63/132/12 65/133/12
f 66/134/7 64/135/7 60/136/7 62/137/7
