# Blender 4.1.1
# www.blender.org
mtllib placard.mtl
o tiroir_bas
v 0.437500 -0.375000 -0.437500
v -0.437500 -0.375000 -0.437500
v -0.437500 -0.062500 -0.437500
v 0.437500 -0.062500 -0.437500
v 0.437500 -0.375000 -0.375000
v 0.437500 -0.062500 -0.375000
v -0.437500 -0.375000 -0.375000
v -0.437500 -0.062500 -0.375000
v 0.500000 -0.500000 -0.375000
v -0.500000 -0.500000 -0.375000
v -0.500000 0.437500 -0.375000
v 0.500000 0.437500 -0.375000
v 0.500000 -0.500000 0.500000
v 0.500000 0.437500 0.500000
v -0.500000 -0.500000 0.500000
v -0.500000 0.437500 0.500000
v 0.437500 -0.000000 -0.437500
v -0.437500 -0.000000 -0.437500
v -0.437500 0.312500 -0.437500
v 0.437500 0.312500 -0.437500
v 0.437500 -0.000000 -0.375000
v 0.437500 0.312500 -0.375000
v -0.437500 -0.000000 -0.375000
v -0.437500 0.312500 -0.375000
vn -0.0000 -0.0000 -1.0000
vn 1.0000 -0.0000 -0.0000
vn -0.0000 -0.0000 1.0000
vn -1.0000 -0.0000 -0.0000
vn -0.0000 1.0000 -0.0000
vn -0.0000 -1.0000 -0.0000
vt 0.000000 0.687500
vt 0.875000 0.687500
vt 0.875000 1.000000
vt 0.000000 1.000000
vt 0.062500 0.687500
vt 0.062500 1.000000
vt 0.000000 0.937500
vt 0.875000 0.937500
vt 0.000000 0.062500
vt 1.000000 0.062500
vt 1.000000 1.000000
vt 0.875000 0.062500
vt 0.000000 0.125000
vt 1.000000 0.125000
s 0
g tiroir_bas_m_81bed88d-8018-8b3a-703d-92780e9eb221
usemtl m_81bed88d-8018-8b3a-703d-92780e9eb221
f 1/1/1 2/2/1 3/3/1 4/4/1
f 5/1/2 1/5/2 4/6/2 6/4/2
f 7/1/3 5/2/3 6/3/3 8/4/3
f 2/1/4 7/5/4 8/6/4 3/4/4
f 8/7/5 6/8/5 4/3/5 3/4/5
f 2/7/6 1/8/6 5/3/6 7/4/6
f 9/9/1 10/10/1 11/11/1 12/4/1
f 13/9/2 9/12/2 12/3/2 14/4/2
f 15/9/3 13/10/3 14/11/3 16/4/3
f 10/9/4 15/12/4 16/3/4 11/4/4
f 16/13/5 14/14/5 12/11/5 11/4/5
f 10/13/6 9/14/6 13/11/6 15/4/6
f 17/1/1 18/2/1 19/3/1 20/4/1
f 21/1/2 17/5/2 20/6/2 22/4/2
f 23/1/3 21/2/3 22/3/3 24/4/3
f 18/1/4 23/5/4 24/6/4 19/4/4
f 24/7/5 22/8/5 20/3/5 19/4/5
f 18/7/6 17/8/6 21/3/6 23/4/6
o wood
v 0.500000 0.437500 -0.500000
v -0.500000 0.437500 -0.500000
v -0.500000 0.500000 -0.500000
v 0.500000 0.500000 -0.500000
v 0.500000 0.437500 0.500000
v 0.500000 0.500000 0.500000
v -0.500000 0.437500 0.500000
v -0.500000 0.500000 0.500000
vn -0.0000 -0.0000 -1.0000
vn 1.0000 -0.0000 -0.0000
vn -0.0000 -0.0000 1.0000
vn -1.0000 -0.0000 -0.0000
vn -0.0000 1.0000 -0.0000
vn -0.0000 -1.0000 -0.0000
vt 0.000000 0.000000
vt 1.000000 0.000000
vt 1.000000 0.062500
vt 0.000000 0.062500
vt 0.062500 0.000000
vt 0.062500 1.000000
vt 0.000000 1.000000
vt 0.000000 0.937500
vt 1.000000 0.937500
vt 1.000000 1.000000
vt 0.937500 1.000000
vt 0.937500 0.000000
s 0
g wood_m_196c4595-31d7-5144-7919-2a6ddccae339
usemtl m_196c4595-31d7-5144-7919-2a6ddccae339
f 25/15/7 26/16/7 27/17/7 28/18/7
f 29/19/8 25/20/8 28/21/8 30/15/8
f 31/22/9 29/23/9 30/24/9 32/21/9
f 26/16/10 31/24/10 32/25/10 27/26/10
f 32/15/11 30/16/11 28/24/11 27/21/11
f 26/15/12 25/16/12 29/24/12 31/21/12
