# Blender 4.1.1
# www.blender.org
mtllib plan.mtl
o cube
v 0.500000 0.375000 0.437500
v 0.500000 0.375000 -0.437500
v 0.500000 -0.500000 0.437500
v 0.500000 -0.500000 -0.437500
v -0.500000 0.375000 -0.437500
v -0.500000 0.375000 0.437500
v -0.500000 -0.500000 -0.437500
v -0.500000 -0.500000 0.437500
vn -0.0000 -0.0000 -1.0000
vn 1.0000 -0.0000 -0.0000
vn -0.0000 -0.0000 1.0000
vn -1.0000 -0.0000 -0.0000
vn -0.0000 1.0000 -0.0000
vn -0.0000 -1.0000 -0.0000
vt 0.000000 0.000000
vt 1.000000 0.000000
vt 1.000000 0.875000
vt 0.000000 0.875000
vt 1.000000 1.000000
vt 0.000000 1.000000
s 0
g cube_m_8527954b-f908-cd08-7296-992dbde9ea3f
usemtl m_8527954b-f908-cd08-7296-992dbde9ea3f
f 4/1/1 7/2/1 5/3/1 2/4/1
f 3/1/2 4/2/2 2/3/2 1/4/2
f 8/1/3 3/2/3 1/3/3 6/4/3
f 7/1/4 8/2/4 6/3/4 5/4/4
f 6/1/5 1/2/5 2/5/5 5/6/5
f 7/1/6 4/2/6 3/5/6 8/6/6
o cube.001
v 0.500000 0.500000 0.500000
v 0.500000 0.500000 -0.500000
v 0.500000 0.375000 0.500000
v 0.500000 0.375000 -0.500000
v -0.500000 0.500000 -0.500000
v -0.500000 0.500000 0.500000
v -0.500000 0.375000 -0.500000
v -0.500000 0.375000 0.500000
vn -0.0000 -0.0000 -1.0000
vn 1.0000 -0.0000 -0.0000
vn -0.0000 -0.0000 1.0000
vn -1.0000 -0.0000 -0.0000
vn -0.0000 1.0000 -0.0000
vn -0.0000 -1.0000 -0.0000
vt 0.000000 0.875000
vt 1.000000 0.875000
vt 1.000000 1.000000
vt 0.000000 1.000000
vt 0.125000 0.000000
vt 0.125000 1.000000
vt 0.000000 0.000000
vt 1.000000 0.000000
vt 1.000000 0.125000
vt 0.000000 0.125000
vt 0.875000 1.000000
vt 0.875000 0.000000
s 0
g cube.001_m_64468cb4-2b8d-a5f0-dfb3-c937cb05a998
usemtl m_64468cb4-2b8d-a5f0-dfb3-c937cb05a998
f 12/7/7 15/8/7 13/9/7 10/10/7
f 11/11/8 12/12/8 10/10/8 9/13/8
f 16/13/9 11/14/9 9/15/9 14/16/9
f 15/14/10 16/9/10 14/17/10 13/18/10
f 14/13/11 9/14/11 10/9/11 13/10/11
f 15/13/12 12/14/12 11/9/12 16/10/12
