# Blender 4.1.1
# www.blender.org
mtllib sopalin.mtl
o cube
v 0.031250 0.125000 0.031250
v 0.031250 0.125000 -0.031250
v 0.031250 0.062500 0.031250
v 0.031250 0.062500 -0.031250
v -0.031250 0.125000 -0.031250
v -0.031250 0.125000 0.031250
v -0.031250 0.062500 -0.031250
v -0.031250 0.062500 0.031250
v 0.250000 -0.437500 0.250000
v 0.250000 -0.437500 -0.250000
v 0.250000 -0.500000 0.250000
v 0.250000 -0.500000 -0.250000
v -0.250000 -0.437500 -0.250000
v -0.250000 -0.437500 0.250000
v -0.250000 -0.500000 -0.250000
v -0.250000 -0.500000 0.250000
vn -0.0000 -0.0000 -1.0000
vn 1.0000 -0.0000 -0.0000
vn -0.0000 -0.0000 1.0000
vn -1.0000 -0.0000 -0.0000
vn -0.0000 1.0000 -0.0000
vn -0.0000 -1.0000 -0.0000
vt 0.437500 0.437500
vt 0.500000 0.437500
vt 0.500000 0.500000
vt 0.437500 0.500000
vt 0.375000 0.500000
vt 0.437500 0.562500
vt 0.375000 0.562500
vt 0.500000 0.562500
vt 0.500000 0.625000
vt 0.437500 0.625000
vt 0.562500 0.500000
vt 0.562500 0.562500
vt 0.500000 0.687500
vt 0.437500 0.687500
vt 0.000000 0.937500
vt 0.500000 0.937500
vt 0.500000 1.000000
vt 0.000000 1.000000
vt 0.000000 0.500000
s 0
g cube_m_3c11c346-30e9-e399-ba06-905e21231117
usemtl m_3c11c346-30e9-e399-ba06-905e21231117
f 4/1/1 7/2/1 5/3/1 2/4/1
f 3/5/2 4/4/2 2/6/2 1/7/2
f 8/6/3 3/8/3 1/9/3 6/10/3
f 7/3/4 8/11/4 6/12/4 5/8/4
f 6/4/5 1/3/5 2/8/5 5/6/5
f 7/10/6 4/9/6 3/13/6 8/14/6
f 12/15/1 15/16/1 13/17/1 10/18/1
f 11/15/2 12/16/2 10/17/2 9/18/2
f 16/15/3 11/16/3 9/17/3 14/18/3
f 15/15/4 16/16/4 14/17/4 13/18/4
f 14/19/5 9/3/5 10/17/5 13/18/5
f 15/19/6 12/3/6 11/17/6 16/18/6
o cube.002
v 0.187500 0.062500 0.187500
v 0.187500 0.062500 -0.187500
v 0.187500 -0.437500 0.187500
v 0.187500 -0.437500 -0.187500
v -0.187500 0.062500 0.187500
v -0.187500 0.062500 -0.187500
v -0.187500 -0.437500 0.187500
v -0.187500 -0.437500 -0.187500
v 0.363288 -0.437500 -0.240327
v 0.250000 -0.437500 -0.187500
v 0.363288 0.062500 -0.240327
v 0.250000 0.062500 -0.187500
v 0.187500 -0.437500 -0.187500
v 0.250000 -0.437500 -0.187500
v 0.187500 0.062500 -0.187500
v 0.250000 0.062500 -0.187500
vn 1.0000 -0.0000 -0.0000
vn -1.0000 -0.0000 -0.0000
vn -0.0000 1.0000 -0.0000
vn -0.0000 -1.0000 -0.0000
vn -0.0000 -0.0000 1.0000
vn -0.0000 -0.0000 -1.0000
vn -0.4226 -0.0000 -0.9063
vt 0.187500 0.750000
vt 0.187500 1.000000
vt 0.000000 1.000000
vt 0.000000 0.750000
vt 0.406250 0.750000
vt 0.406250 1.000000
vt 0.218750 1.000000
vt 0.218750 0.750000
vt 0.625000 0.812500
vt 0.625000 1.000000
vt 0.437500 1.000000
vt 0.437500 0.812500
vt 0.625000 0.593750
vt 0.625000 0.781250
vt 0.437500 0.781250
vt 0.437500 0.593750
vt 0.187500 0.468750
vt 0.187500 0.718750
vt 0.000000 0.718750
vt 0.000000 0.468750
vt 0.406250 0.468750
vt 0.406250 0.718750
vt 0.218750 0.718750
vt 0.218750 0.468750
vt 0.437500 0.312500
vt 0.500000 0.312500
vt 0.500000 0.562500
vt 0.437500 0.562500
vt 0.531250 0.312500
vt 0.562500 0.312500
vt 0.562500 0.562500
vt 0.531250 0.562500
s 0
g cube.002_m_0cd9e509-c92b-a7d5-4f28-a76f6701d1c7
usemtl m_0cd9e509-c92b-a7d5-4f28-a76f6701d1c7
f 20/20/7 18/21/7 17/22/7 19/23/7
f 23/24/8 21/25/8 22/26/8 24/27/8
f 17/28/9 18/29/9 22/30/9 21/31/9
f 20/32/10 19/33/10 23/34/10 24/35/10
f 19/36/11 17/37/11 21/38/11 23/39/11
f 24/40/12 22/41/12 18/42/12 20/43/12
f 25/44/13 26/45/13 28/46/13 27/47/13
f 29/48/11 30/49/11 32/50/11 31/51/11
